<svg xmlns="http://www.w3.org/2000/svg" viewBox="0 0 1200 800" width="1200" height="800">
  <defs>
    <radialGradient id="coinGrad" cx="35%" cy="35%" r="50%" fx="35%" fy="35%">
      <stop offset="0%" stop-color="#ffe066" />
      <stop offset="100%" stop-color="#e8a000" />
    </radialGradient>
    <filter id="dropShadow">
      <feDropShadow dx="4" dy="4" stdDeviation="0" flood-color="#1b1c15" />
    </filter>
  </defs>
  
  <g filter="url(#dropShadow)">

    <g transform="translate(180, 80) scale(0.75) rotate(-12)" opacity="0.3">
      
<g>
  <rect x="0" y="13" width="48" height="37" fill="#00a000" stroke="#000" stroke-width="3" />
  <rect x="-4" y="0" width="56" height="16" fill="#00c800" stroke="#000" stroke-width="3" />
  <rect x="6" y="0" width="4" height="50" fill="#fff" opacity="0.3" />
</g>

    </g>
  
    <g transform="translate(900, 280) scale(0.5) rotate(25)" opacity="0.3">
      
<g>
  <ellipse cx="14" cy="18" rx="14" ry="18" fill="url(#coinGrad)" stroke="#b87800" stroke-width="3" />
  <ellipse cx="14" cy="18" rx="11" ry="15" fill="none" stroke="#cc8800" stroke-width="3" />
</g>

    </g>
  
    <g transform="translate(96, 520) scale(0.9) rotate(-6)" opacity="0.3">
      
<g>
  <rect x="0" y="0" width="40" height="40" fill="#c84c0c" stroke="#000" stroke-width="3" />
  <rect x="3" y="3" width="34" height="34" fill="none" stroke="#ff9c6c" stroke-width="3" />
  <rect x="6" y="6" width="28" height="28" fill="none" stroke="#6c2400" stroke-width="3" />
  <line x1="0" y1="20" x2="40" y2="20" stroke="#6c2400" stroke-width="2" />
  <line x1="20" y1="0" x2="20" y2="20" stroke="#6c2400" stroke-width="2" />
  <line x1="20" y1="20" x2="20" y2="40" stroke="#6c2400" stroke-width="2" />
</g>

    </g>
  
    <g transform="translate(1056, 680) scale(0.75) rotate(12)" opacity="0.3">
      
<g>
  <rect x="0" y="0" width="40" height="40" fill="#e89000" stroke="#000" stroke-width="3" />
  <rect x="3" y="3" width="34" height="34" fill="none" stroke="#ffc86c" stroke-width="3" />
  <rect x="6" y="6" width="28" height="28" fill="none" stroke="#885000" stroke-width="3" />
  <text x="20" y="29" font-family="sans-serif" font-weight="900" font-size="24" fill="#e89000" stroke="#000" stroke-width="1.5" text-anchor="middle">?</text>
</g>

    </g>
  
    <g transform="translate(360, 40) scale(0.9) rotate(6)" opacity="0.5">
      
<g>
  <ellipse cx="14" cy="18" rx="14" ry="18" fill="url(#coinGrad)" stroke="#b87800" stroke-width="3" />
  <ellipse cx="14" cy="18" rx="11" ry="15" fill="none" stroke="#cc8800" stroke-width="3" />
</g>

    </g>
  
    <g transform="translate(1104, 360) scale(1) rotate(-15)" opacity="0.5">
      
<g>
  <rect x="0" y="13" width="48" height="37" fill="#00a000" stroke="#000" stroke-width="3" />
  <rect x="-4" y="0" width="56" height="16" fill="#00c800" stroke="#000" stroke-width="3" />
  <rect x="6" y="0" width="4" height="50" fill="#fff" opacity="0.3" />
</g>

    </g>
  
    <g transform="translate(300, 600) scale(0.75) rotate(30)" opacity="0.5">
      
<g>
  <ellipse cx="14" cy="18" rx="14" ry="18" fill="url(#coinGrad)" stroke="#b87800" stroke-width="3" />
  <ellipse cx="14" cy="18" rx="11" ry="15" fill="none" stroke="#cc8800" stroke-width="3" />
</g>

    </g>
  
    <g transform="translate(780, 720) scale(0.9) rotate(-12)" opacity="0.5">
      
<g>
  <rect x="0" y="0" width="40" height="40" fill="#c84c0c" stroke="#000" stroke-width="3" />
  <rect x="3" y="3" width="34" height="34" fill="none" stroke="#ff9c6c" stroke-width="3" />
  <rect x="6" y="6" width="28" height="28" fill="none" stroke="#6c2400" stroke-width="3" />
  <line x1="0" y1="20" x2="40" y2="20" stroke="#6c2400" stroke-width="2" />
  <line x1="20" y1="0" x2="20" y2="20" stroke="#6c2400" stroke-width="2" />
  <line x1="20" y1="20" x2="20" y2="40" stroke="#6c2400" stroke-width="2" />
</g>

    </g>
  
    <g transform="translate(1020, 120) scale(1.1) rotate(12)" opacity="0.8">
      
<g>
  <rect x="0" y="0" width="40" height="40" fill="#e89000" stroke="#000" stroke-width="3" />
  <rect x="3" y="3" width="34" height="34" fill="none" stroke="#ffc86c" stroke-width="3" />
  <rect x="6" y="6" width="28" height="28" fill="none" stroke="#885000" stroke-width="3" />
  <text x="20" y="29" font-family="sans-serif" font-weight="900" font-size="24" fill="#e89000" stroke="#000" stroke-width="1.5" text-anchor="middle">?</text>
</g>

    </g>
  
    <g transform="translate(60, 224.00000000000003) scale(1.25) rotate(-12)" opacity="0.8">
      
<g>
  <rect x="0" y="0" width="40" height="40" fill="#c84c0c" stroke="#000" stroke-width="3" />
  <rect x="3" y="3" width="34" height="34" fill="none" stroke="#ff9c6c" stroke-width="3" />
  <rect x="6" y="6" width="28" height="28" fill="none" stroke="#6c2400" stroke-width="3" />
  <line x1="0" y1="20" x2="40" y2="20" stroke="#6c2400" stroke-width="2" />
  <line x1="20" y1="0" x2="20" y2="20" stroke="#6c2400" stroke-width="2" />
  <line x1="20" y1="20" x2="20" y2="40" stroke="#6c2400" stroke-width="2" />
</g>

    </g>
  
    <g transform="translate(216, 440.00000000000006) scale(1.1) rotate(6)" opacity="0.8">
      
<g>
  <rect x="0" y="0" width="40" height="40" fill="#e89000" stroke="#000" stroke-width="3" />
  <rect x="3" y="3" width="34" height="34" fill="none" stroke="#ffc86c" stroke-width="3" />
  <rect x="6" y="6" width="28" height="28" fill="none" stroke="#885000" stroke-width="3" />
  <text x="20" y="29" font-family="sans-serif" font-weight="900" font-size="24" fill="#e89000" stroke="#000" stroke-width="1.5" text-anchor="middle">?</text>
</g>

    </g>
  
    <g transform="translate(1128, 640) scale(1.25) rotate(-20)" opacity="0.8">
      
<g>
  <rect x="0" y="13" width="48" height="37" fill="#00a000" stroke="#000" stroke-width="3" />
  <rect x="-4" y="0" width="56" height="16" fill="#00c800" stroke="#000" stroke-width="3" />
  <rect x="6" y="0" width="4" height="50" fill="#fff" opacity="0.3" />
</g>

    </g>
  
  </g>
</svg>