<svg xmlns="http://www.w3.org/2000/svg" viewBox="0 0 800 600" width="800" height="600">
  <!-- Background Sky -->
  <rect width="100%" height="100%" fill="#5C94FC" />
  
  <!-- Ground -->
  <rect y="500" width="100%" height="100" fill="#C84C0C" />
  <rect y="500" width="100%" height="10" fill="#000000" opacity="0.2" />

  <!-- Pipe (on the right) -->
  <rect x="515" y="260" width="15" height="15" fill="#432817" />
<rect x="530" y="260" width="15" height="15" fill="#432817" />
<rect x="545" y="260" width="15" height="15" fill="#432817" />
<rect x="560" y="260" width="15" height="15" fill="#432817" />
<rect x="575" y="260" width="15" height="15" fill="#432817" />
<rect x="590" y="260" width="15" height="15" fill="#432817" />
<rect x="605" y="260" width="15" height="15" fill="#432817" />
<rect x="620" y="260" width="15" height="15" fill="#432817" />
<rect x="635" y="260" width="15" height="15" fill="#432817" />
<rect x="650" y="260" width="15" height="15" fill="#432817" />
<rect x="665" y="260" width="15" height="15" fill="#432817" />
<rect x="680" y="260" width="15" height="15" fill="#432817" />
<rect x="695" y="260" width="15" height="15" fill="#432817" />
<rect x="710" y="260" width="15" height="15" fill="#432817" />
<rect x="500" y="275" width="15" height="15" fill="#432817" />
<rect x="515" y="275" width="15" height="15" fill="#00A800" />
<rect x="530" y="275" width="15" height="15" fill="#80D010" />
<rect x="545" y="275" width="15" height="15" fill="#80D010" />
<rect x="560" y="275" width="15" height="15" fill="#00A800" />
<rect x="575" y="275" width="15" height="15" fill="#00A800" />
<rect x="590" y="275" width="15" height="15" fill="#00A800" />
<rect x="605" y="275" width="15" height="15" fill="#00A800" />
<rect x="620" y="275" width="15" height="15" fill="#00A800" />
<rect x="635" y="275" width="15" height="15" fill="#00A800" />
<rect x="650" y="275" width="15" height="15" fill="#00A800" />
<rect x="665" y="275" width="15" height="15" fill="#00A800" />
<rect x="680" y="275" width="15" height="15" fill="#00A800" />
<rect x="695" y="275" width="15" height="15" fill="#00A800" />
<rect x="710" y="275" width="15" height="15" fill="#432817" />
<rect x="725" y="275" width="15" height="15" fill="#432817" />
<rect x="500" y="290" width="15" height="15" fill="#432817" />
<rect x="515" y="290" width="15" height="15" fill="#00A800" />
<rect x="530" y="290" width="15" height="15" fill="#00A800" />
<rect x="545" y="290" width="15" height="15" fill="#00A800" />
<rect x="560" y="290" width="15" height="15" fill="#00A800" />
<rect x="575" y="290" width="15" height="15" fill="#00A800" />
<rect x="590" y="290" width="15" height="15" fill="#00A800" />
<rect x="605" y="290" width="15" height="15" fill="#00A800" />
<rect x="620" y="290" width="15" height="15" fill="#00A800" />
<rect x="635" y="290" width="15" height="15" fill="#00A800" />
<rect x="650" y="290" width="15" height="15" fill="#00A800" />
<rect x="665" y="290" width="15" height="15" fill="#00A800" />
<rect x="680" y="290" width="15" height="15" fill="#00A800" />
<rect x="695" y="290" width="15" height="15" fill="#00A800" />
<rect x="710" y="290" width="15" height="15" fill="#00A800" />
<rect x="725" y="290" width="15" height="15" fill="#432817" />
<rect x="500" y="305" width="15" height="15" fill="#432817" />
<rect x="515" y="305" width="15" height="15" fill="#00A800" />
<rect x="530" y="305" width="15" height="15" fill="#00A800" />
<rect x="545" y="305" width="15" height="15" fill="#00A800" />
<rect x="560" y="305" width="15" height="15" fill="#00A800" />
<rect x="575" y="305" width="15" height="15" fill="#00A800" />
<rect x="590" y="305" width="15" height="15" fill="#00A800" />
<rect x="605" y="305" width="15" height="15" fill="#00A800" />
<rect x="620" y="305" width="15" height="15" fill="#00A800" />
<rect x="635" y="305" width="15" height="15" fill="#00A800" />
<rect x="650" y="305" width="15" height="15" fill="#00A800" />
<rect x="665" y="305" width="15" height="15" fill="#00A800" />
<rect x="680" y="305" width="15" height="15" fill="#00A800" />
<rect x="695" y="305" width="15" height="15" fill="#00A800" />
<rect x="710" y="305" width="15" height="15" fill="#00A800" />
<rect x="725" y="305" width="15" height="15" fill="#432817" />
<rect x="515" y="320" width="15" height="15" fill="#432817" />
<rect x="530" y="320" width="15" height="15" fill="#432817" />
<rect x="545" y="320" width="15" height="15" fill="#432817" />
<rect x="560" y="320" width="15" height="15" fill="#432817" />
<rect x="575" y="320" width="15" height="15" fill="#432817" />
<rect x="590" y="320" width="15" height="15" fill="#432817" />
<rect x="605" y="320" width="15" height="15" fill="#432817" />
<rect x="620" y="320" width="15" height="15" fill="#432817" />
<rect x="635" y="320" width="15" height="15" fill="#432817" />
<rect x="650" y="320" width="15" height="15" fill="#432817" />
<rect x="665" y="320" width="15" height="15" fill="#432817" />
<rect x="680" y="320" width="15" height="15" fill="#432817" />
<rect x="695" y="320" width="15" height="15" fill="#432817" />
<rect x="710" y="320" width="15" height="15" fill="#432817" />
<rect x="530" y="335" width="15" height="15" fill="#432817" />
<rect x="545" y="335" width="15" height="15" fill="#80D010" />
<rect x="560" y="335" width="15" height="15" fill="#80D010" />
<rect x="575" y="335" width="15" height="15" fill="#00A800" />
<rect x="590" y="335" width="15" height="15" fill="#00A800" />
<rect x="605" y="335" width="15" height="15" fill="#00A800" />
<rect x="620" y="335" width="15" height="15" fill="#00A800" />
<rect x="635" y="335" width="15" height="15" fill="#00A800" />
<rect x="650" y="335" width="15" height="15" fill="#00A800" />
<rect x="665" y="335" width="15" height="15" fill="#00A800" />
<rect x="680" y="335" width="15" height="15" fill="#00A800" />
<rect x="695" y="335" width="15" height="15" fill="#432817" />
<rect x="530" y="350" width="15" height="15" fill="#432817" />
<rect x="545" y="350" width="15" height="15" fill="#00A800" />
<rect x="560" y="350" width="15" height="15" fill="#00A800" />
<rect x="575" y="350" width="15" height="15" fill="#00A800" />
<rect x="590" y="350" width="15" height="15" fill="#00A800" />
<rect x="605" y="350" width="15" height="15" fill="#00A800" />
<rect x="620" y="350" width="15" height="15" fill="#00A800" />
<rect x="635" y="350" width="15" height="15" fill="#00A800" />
<rect x="650" y="350" width="15" height="15" fill="#00A800" />
<rect x="665" y="350" width="15" height="15" fill="#00A800" />
<rect x="680" y="350" width="15" height="15" fill="#00A800" />
<rect x="695" y="350" width="15" height="15" fill="#432817" />
<rect x="530" y="365" width="15" height="15" fill="#432817" />
<rect x="545" y="365" width="15" height="15" fill="#00A800" />
<rect x="560" y="365" width="15" height="15" fill="#00A800" />
<rect x="575" y="365" width="15" height="15" fill="#00A800" />
<rect x="590" y="365" width="15" height="15" fill="#00A800" />
<rect x="605" y="365" width="15" height="15" fill="#00A800" />
<rect x="620" y="365" width="15" height="15" fill="#00A800" />
<rect x="635" y="365" width="15" height="15" fill="#00A800" />
<rect x="650" y="365" width="15" height="15" fill="#00A800" />
<rect x="665" y="365" width="15" height="15" fill="#00A800" />
<rect x="680" y="365" width="15" height="15" fill="#00A800" />
<rect x="695" y="365" width="15" height="15" fill="#432817" />
<rect x="530" y="380" width="15" height="15" fill="#432817" />
<rect x="545" y="380" width="15" height="15" fill="#00A800" />
<rect x="560" y="380" width="15" height="15" fill="#00A800" />
<rect x="575" y="380" width="15" height="15" fill="#00A800" />
<rect x="590" y="380" width="15" height="15" fill="#00A800" />
<rect x="605" y="380" width="15" height="15" fill="#00A800" />
<rect x="620" y="380" width="15" height="15" fill="#00A800" />
<rect x="635" y="380" width="15" height="15" fill="#00A800" />
<rect x="650" y="380" width="15" height="15" fill="#00A800" />
<rect x="665" y="380" width="15" height="15" fill="#00A800" />
<rect x="680" y="380" width="15" height="15" fill="#00A800" />
<rect x="695" y="380" width="15" height="15" fill="#432817" />
<rect x="530" y="395" width="15" height="15" fill="#432817" />
<rect x="545" y="395" width="15" height="15" fill="#00A800" />
<rect x="560" y="395" width="15" height="15" fill="#00A800" />
<rect x="575" y="395" width="15" height="15" fill="#00A800" />
<rect x="590" y="395" width="15" height="15" fill="#00A800" />
<rect x="605" y="395" width="15" height="15" fill="#00A800" />
<rect x="620" y="395" width="15" height="15" fill="#00A800" />
<rect x="635" y="395" width="15" height="15" fill="#00A800" />
<rect x="650" y="395" width="15" height="15" fill="#00A800" />
<rect x="665" y="395" width="15" height="15" fill="#00A800" />
<rect x="680" y="395" width="15" height="15" fill="#00A800" />
<rect x="695" y="395" width="15" height="15" fill="#432817" />
<rect x="530" y="410" width="15" height="15" fill="#432817" />
<rect x="545" y="410" width="15" height="15" fill="#00A800" />
<rect x="560" y="410" width="15" height="15" fill="#00A800" />
<rect x="575" y="410" width="15" height="15" fill="#00A800" />
<rect x="590" y="410" width="15" height="15" fill="#00A800" />
<rect x="605" y="410" width="15" height="15" fill="#00A800" />
<rect x="620" y="410" width="15" height="15" fill="#00A800" />
<rect x="635" y="410" width="15" height="15" fill="#00A800" />
<rect x="650" y="410" width="15" height="15" fill="#00A800" />
<rect x="665" y="410" width="15" height="15" fill="#00A800" />
<rect x="680" y="410" width="15" height="15" fill="#00A800" />
<rect x="695" y="410" width="15" height="15" fill="#432817" />
<rect x="530" y="425" width="15" height="15" fill="#432817" />
<rect x="545" y="425" width="15" height="15" fill="#00A800" />
<rect x="560" y="425" width="15" height="15" fill="#00A800" />
<rect x="575" y="425" width="15" height="15" fill="#00A800" />
<rect x="590" y="425" width="15" height="15" fill="#00A800" />
<rect x="605" y="425" width="15" height="15" fill="#00A800" />
<rect x="620" y="425" width="15" height="15" fill="#00A800" />
<rect x="635" y="425" width="15" height="15" fill="#00A800" />
<rect x="650" y="425" width="15" height="15" fill="#00A800" />
<rect x="665" y="425" width="15" height="15" fill="#00A800" />
<rect x="680" y="425" width="15" height="15" fill="#00A800" />
<rect x="695" y="425" width="15" height="15" fill="#432817" />
<rect x="530" y="440" width="15" height="15" fill="#432817" />
<rect x="545" y="440" width="15" height="15" fill="#00A800" />
<rect x="560" y="440" width="15" height="15" fill="#00A800" />
<rect x="575" y="440" width="15" height="15" fill="#00A800" />
<rect x="590" y="440" width="15" height="15" fill="#00A800" />
<rect x="605" y="440" width="15" height="15" fill="#00A800" />
<rect x="620" y="440" width="15" height="15" fill="#00A800" />
<rect x="635" y="440" width="15" height="15" fill="#00A800" />
<rect x="650" y="440" width="15" height="15" fill="#00A800" />
<rect x="665" y="440" width="15" height="15" fill="#00A800" />
<rect x="680" y="440" width="15" height="15" fill="#00A800" />
<rect x="695" y="440" width="15" height="15" fill="#432817" />
<rect x="530" y="455" width="15" height="15" fill="#432817" />
<rect x="545" y="455" width="15" height="15" fill="#00A800" />
<rect x="560" y="455" width="15" height="15" fill="#00A800" />
<rect x="575" y="455" width="15" height="15" fill="#00A800" />
<rect x="590" y="455" width="15" height="15" fill="#00A800" />
<rect x="605" y="455" width="15" height="15" fill="#00A800" />
<rect x="620" y="455" width="15" height="15" fill="#00A800" />
<rect x="635" y="455" width="15" height="15" fill="#00A800" />
<rect x="650" y="455" width="15" height="15" fill="#00A800" />
<rect x="665" y="455" width="15" height="15" fill="#00A800" />
<rect x="680" y="455" width="15" height="15" fill="#00A800" />
<rect x="695" y="455" width="15" height="15" fill="#432817" />
<rect x="530" y="470" width="15" height="15" fill="#432817" />
<rect x="545" y="470" width="15" height="15" fill="#00A800" />
<rect x="560" y="470" width="15" height="15" fill="#00A800" />
<rect x="575" y="470" width="15" height="15" fill="#00A800" />
<rect x="590" y="470" width="15" height="15" fill="#00A800" />
<rect x="605" y="470" width="15" height="15" fill="#00A800" />
<rect x="620" y="470" width="15" height="15" fill="#00A800" />
<rect x="635" y="470" width="15" height="15" fill="#00A800" />
<rect x="650" y="470" width="15" height="15" fill="#00A800" />
<rect x="665" y="470" width="15" height="15" fill="#00A800" />
<rect x="680" y="470" width="15" height="15" fill="#00A800" />
<rect x="695" y="470" width="15" height="15" fill="#432817" />
<rect x="530" y="485" width="15" height="15" fill="#432817" />
<rect x="545" y="485" width="15" height="15" fill="#00A800" />
<rect x="560" y="485" width="15" height="15" fill="#00A800" />
<rect x="575" y="485" width="15" height="15" fill="#00A800" />
<rect x="590" y="485" width="15" height="15" fill="#00A800" />
<rect x="605" y="485" width="15" height="15" fill="#00A800" />
<rect x="620" y="485" width="15" height="15" fill="#00A800" />
<rect x="635" y="485" width="15" height="15" fill="#00A800" />
<rect x="650" y="485" width="15" height="15" fill="#00A800" />
<rect x="665" y="485" width="15" height="15" fill="#00A800" />
<rect x="680" y="485" width="15" height="15" fill="#00A800" />
<rect x="695" y="485" width="15" height="15" fill="#432817" />


  <!-- Mario (jumping over the pipe) -->
  <rect x="460" y="110" width="15" height="15" fill="#E52521" />
<rect x="475" y="110" width="15" height="15" fill="#E52521" />
<rect x="490" y="110" width="15" height="15" fill="#E52521" />
<rect x="505" y="110" width="15" height="15" fill="#E52521" />
<rect x="520" y="110" width="15" height="15" fill="#E52521" />
<rect x="445" y="125" width="15" height="15" fill="#E52521" />
<rect x="460" y="125" width="15" height="15" fill="#E52521" />
<rect x="475" y="125" width="15" height="15" fill="#E52521" />
<rect x="490" y="125" width="15" height="15" fill="#E52521" />
<rect x="505" y="125" width="15" height="15" fill="#E52521" />
<rect x="520" y="125" width="15" height="15" fill="#E52521" />
<rect x="535" y="125" width="15" height="15" fill="#E52521" />
<rect x="550" y="125" width="15" height="15" fill="#E52521" />
<rect x="565" y="125" width="15" height="15" fill="#E52521" />
<rect x="445" y="140" width="15" height="15" fill="#432817" />
<rect x="460" y="140" width="15" height="15" fill="#432817" />
<rect x="475" y="140" width="15" height="15" fill="#432817" />
<rect x="490" y="140" width="15" height="15" fill="#FCE3B4" />
<rect x="505" y="140" width="15" height="15" fill="#FCE3B4" />
<rect x="520" y="140" width="15" height="15" fill="#432817" />
<rect x="535" y="140" width="15" height="15" fill="#FCE3B4" />
<rect x="610" y="140" width="15" height="15" fill="#E52521" />
<rect x="430" y="155" width="15" height="15" fill="#432817" />
<rect x="445" y="155" width="15" height="15" fill="#FCE3B4" />
<rect x="460" y="155" width="15" height="15" fill="#432817" />
<rect x="475" y="155" width="15" height="15" fill="#FCE3B4" />
<rect x="490" y="155" width="15" height="15" fill="#FCE3B4" />
<rect x="505" y="155" width="15" height="15" fill="#FCE3B4" />
<rect x="520" y="155" width="15" height="15" fill="#432817" />
<rect x="535" y="155" width="15" height="15" fill="#FCE3B4" />
<rect x="550" y="155" width="15" height="15" fill="#FCE3B4" />
<rect x="565" y="155" width="15" height="15" fill="#FCE3B4" />
<rect x="580" y="155" width="15" height="15" fill="#FCE3B4" />
<rect x="610" y="155" width="15" height="15" fill="#E52521" />
<rect x="625" y="155" width="15" height="15" fill="#E52521" />
<rect x="430" y="170" width="15" height="15" fill="#432817" />
<rect x="445" y="170" width="15" height="15" fill="#FCE3B4" />
<rect x="460" y="170" width="15" height="15" fill="#432817" />
<rect x="475" y="170" width="15" height="15" fill="#432817" />
<rect x="490" y="170" width="15" height="15" fill="#FCE3B4" />
<rect x="505" y="170" width="15" height="15" fill="#FCE3B4" />
<rect x="520" y="170" width="15" height="15" fill="#FCE3B4" />
<rect x="535" y="170" width="15" height="15" fill="#432817" />
<rect x="550" y="170" width="15" height="15" fill="#FCE3B4" />
<rect x="565" y="170" width="15" height="15" fill="#FCE3B4" />
<rect x="580" y="170" width="15" height="15" fill="#FCE3B4" />
<rect x="595" y="170" width="15" height="15" fill="#FCE3B4" />
<rect x="610" y="170" width="15" height="15" fill="#E52521" />
<rect x="625" y="170" width="15" height="15" fill="#E52521" />
<rect x="430" y="185" width="15" height="15" fill="#432817" />
<rect x="445" y="185" width="15" height="15" fill="#432817" />
<rect x="460" y="185" width="15" height="15" fill="#FCE3B4" />
<rect x="475" y="185" width="15" height="15" fill="#FCE3B4" />
<rect x="490" y="185" width="15" height="15" fill="#FCE3B4" />
<rect x="505" y="185" width="15" height="15" fill="#432817" />
<rect x="520" y="185" width="15" height="15" fill="#FCE3B4" />
<rect x="535" y="185" width="15" height="15" fill="#432817" />
<rect x="550" y="185" width="15" height="15" fill="#432817" />
<rect x="565" y="185" width="15" height="15" fill="#432817" />
<rect x="580" y="185" width="15" height="15" fill="#432817" />
<rect x="610" y="185" width="15" height="15" fill="#E52521" />
<rect x="460" y="200" width="15" height="15" fill="#FCE3B4" />
<rect x="475" y="200" width="15" height="15" fill="#FCE3B4" />
<rect x="490" y="200" width="15" height="15" fill="#FCE3B4" />
<rect x="505" y="200" width="15" height="15" fill="#FCE3B4" />
<rect x="520" y="200" width="15" height="15" fill="#FCE3B4" />
<rect x="535" y="200" width="15" height="15" fill="#FCE3B4" />
<rect x="550" y="200" width="15" height="15" fill="#FCE3B4" />
<rect x="565" y="200" width="15" height="15" fill="#FCE3B4" />
<rect x="445" y="215" width="15" height="15" fill="#E52521" />
<rect x="460" y="215" width="15" height="15" fill="#049CD8" />
<rect x="475" y="215" width="15" height="15" fill="#049CD8" />
<rect x="490" y="215" width="15" height="15" fill="#049CD8" />
<rect x="505" y="215" width="15" height="15" fill="#E52521" />
<rect x="520" y="215" width="15" height="15" fill="#E52521" />
<rect x="535" y="215" width="15" height="15" fill="#E52521" />
<rect x="430" y="230" width="15" height="15" fill="#E52521" />
<rect x="445" y="230" width="15" height="15" fill="#E52521" />
<rect x="460" y="230" width="15" height="15" fill="#E52521" />
<rect x="475" y="230" width="15" height="15" fill="#049CD8" />
<rect x="490" y="230" width="15" height="15" fill="#049CD8" />
<rect x="505" y="230" width="15" height="15" fill="#E52521" />
<rect x="520" y="230" width="15" height="15" fill="#E52521" />
<rect x="535" y="230" width="15" height="15" fill="#E52521" />
<rect x="550" y="230" width="15" height="15" fill="#E52521" />
<rect x="565" y="230" width="15" height="15" fill="#E52521" />
<rect x="580" y="230" width="15" height="15" fill="#E52521" />
<rect x="415" y="245" width="15" height="15" fill="#E52521" />
<rect x="430" y="245" width="15" height="15" fill="#E52521" />
<rect x="445" y="245" width="15" height="15" fill="#E52521" />
<rect x="460" y="245" width="15" height="15" fill="#E52521" />
<rect x="475" y="245" width="15" height="15" fill="#049CD8" />
<rect x="490" y="245" width="15" height="15" fill="#049CD8" />
<rect x="505" y="245" width="15" height="15" fill="#FDF104" />
<rect x="520" y="245" width="15" height="15" fill="#049CD8" />
<rect x="535" y="245" width="15" height="15" fill="#049CD8" />
<rect x="550" y="245" width="15" height="15" fill="#E52521" />
<rect x="565" y="245" width="15" height="15" fill="#E52521" />
<rect x="580" y="245" width="15" height="15" fill="#432817" />
<rect x="595" y="245" width="15" height="15" fill="#432817" />
<rect x="415" y="260" width="15" height="15" fill="#432817" />
<rect x="430" y="260" width="15" height="15" fill="#432817" />
<rect x="460" y="260" width="15" height="15" fill="#E52521" />
<rect x="475" y="260" width="15" height="15" fill="#049CD8" />
<rect x="490" y="260" width="15" height="15" fill="#049CD8" />
<rect x="505" y="260" width="15" height="15" fill="#049CD8" />
<rect x="520" y="260" width="15" height="15" fill="#049CD8" />
<rect x="535" y="260" width="15" height="15" fill="#049CD8" />
<rect x="550" y="260" width="15" height="15" fill="#049CD8" />
<rect x="595" y="260" width="15" height="15" fill="#432817" />
<rect x="415" y="275" width="15" height="15" fill="#432817" />
<rect x="430" y="275" width="15" height="15" fill="#432817" />
<rect x="475" y="275" width="15" height="15" fill="#049CD8" />
<rect x="490" y="275" width="15" height="15" fill="#049CD8" />
<rect x="505" y="275" width="15" height="15" fill="#049CD8" />
<rect x="520" y="275" width="15" height="15" fill="#049CD8" />
<rect x="535" y="275" width="15" height="15" fill="#049CD8" />
<rect x="550" y="275" width="15" height="15" fill="#049CD8" />
<rect x="430" y="290" width="15" height="15" fill="#432817" />
<rect x="475" y="290" width="15" height="15" fill="#049CD8" />
<rect x="490" y="290" width="15" height="15" fill="#049CD8" />
<rect x="535" y="290" width="15" height="15" fill="#049CD8" />
<rect x="550" y="290" width="15" height="15" fill="#049CD8" />
<rect x="475" y="305" width="15" height="15" fill="#432817" />
<rect x="490" y="305" width="15" height="15" fill="#432817" />
<rect x="550" y="305" width="15" height="15" fill="#432817" />
<rect x="565" y="305" width="15" height="15" fill="#432817" />
<rect x="475" y="320" width="15" height="15" fill="#432817" />
<rect x="490" y="320" width="15" height="15" fill="#432817" />
<rect x="550" y="320" width="15" height="15" fill="#432817" />
<rect x="565" y="320" width="15" height="15" fill="#432817" />

  
  <!-- Mario Shadow -->
  <ellipse cx="520" cy="520" rx="60" ry="15" fill="#000000" opacity="0.3" />

</svg>